<?xml version="1.0" encoding="utf-8"?>
<svg viewBox="0 0 500 500" xmlns="http://www.w3.org/2000/svg" xmlns:bx="https://boxy-svg.com">
  <defs>
    <bx:grid x="0" y="0" width="60" height="60"/>
  </defs>
  <g style="">
    <title>301</title>
    <rect width="1200" height="600" style="stroke: rgb(0, 0, 0); fill: rgb(255, 255, 255); stroke-width: 4px;"/>
    <text style="white-space: pre; fill: rgb(51, 51, 51); font-family: Arial, sans-serif; font-size: 89.3px;" x="600" y="330.786">Γ</text>
  </g>
  <g style="" transform="matrix(1, 0, 0, 1, 0, 600)">
    <title>101</title>
    <rect width="1200" height="1200" style="stroke: rgb(0, 0, 0); fill: rgb(255, 255, 255); stroke-width: 4px;"/>
    <text style="white-space: pre; fill: rgb(51, 51, 51); font-family: Arial, sans-serif; font-size: 89.3px;" x="600" y="529.871">Γ</text>
  </g>
  <g style="" transform="matrix(-1, 0, 0, 1, 2400, 600)">
    <title>302</title>
    <rect width="1200" height="600" style="stroke: rgb(0, 0, 0); fill: rgb(255, 255, 255); stroke-width: 4px;"/>
    <text style="white-space: pre; fill: rgb(51, 51, 51); font-family: Arial, sans-serif; font-size: 89.3px;" x="600" y="330.786">Γ</text>
  </g>
  <g style="" transform="matrix(1, 0, 0, -1, 0, 2400)">
    <title>301</title>
    <rect width="1200" height="600" style="stroke: rgb(0, 0, 0); fill: rgb(255, 255, 255); stroke-width: 4px;"/>
    <text style="white-space: pre; fill: rgb(51, 51, 51); font-family: Arial, sans-serif; font-size: 89.3px;" x="600" y="330.786">Γ</text>
  </g>
  <g style="" transform="matrix(1, 0, 0, 1, -1200, 0)">
    <title>102</title>
    <rect width="1200" height="1200" style="stroke: rgb(0, 0, 0); fill: rgb(255, 255, 255); stroke-width: 4px;"/>
    <text style="white-space: pre; fill: rgb(51, 51, 51); font-family: Arial, sans-serif; font-size: 89.3px;" x="600" y="629.871">Γ</text>
  </g>
  <g style="" transform="matrix(1, 0, 0, 1, -1200, 1200)">
    <title>303</title>
    <rect width="1200" height="600" style="stroke: rgb(0, 0, 0); fill: rgb(255, 255, 255); stroke-width: 4px;"/>
    <text style="white-space: pre; fill: rgb(51, 51, 51); font-family: Arial, sans-serif; font-size: 89.3px;" x="600" y="330.786">Γ</text>
  </g>
  <g style="" transform="matrix(1, 0, 0, -1, -2400, 1800)">
    <title>302</title>
    <rect width="1200" height="600" style="stroke: rgb(0, 0, 0); fill: rgb(255, 255, 255); stroke-width: 4px;"/>
    <text style="white-space: pre; fill: rgb(51, 51, 51); font-family: Arial, sans-serif; font-size: 89.3px;" x="600" y="330.786">Γ</text>
  </g>
</svg>