<?xml version="1.0" encoding="utf-8"?>
<svg width="1024" height="1024" viewBox="0 0 1024 1024" version="1.1" xmlns="http://www.w3.org/2000/svg" xmlns:bx="https://boxy-svg.com">
  <defs>
    <bx:grid x="0" y="0" width="6.4" height="6.4"/>
  </defs>
  <desc>cuboid-character.blend, (Blender 4.1.0)</desc>
  <g>
    <title>uv-map</title>
    <polygon points="1024.000,0.000 921.600,0.000 921.600,102.400 1024.000,102.400 " style="fill-opacity: 0; stroke-width: 8px;">
      <title>ground-ring</title>
    </polygon>
    <circle style="stroke-width: 8px; stroke: rgb(255, 0, 0); fill: none;" cx="973.158508" cy="50.841564" r="46.558437"/>
    <polygon points="819.200,0.000 716.800,0.000 716.800,102.400 819.200,102.400 " style="fill-opacity: 0.25; stroke-width: 8px;">
      <title>ground-shadow</title>
    </polygon>
    <polygon points="320.000,544.000 160.000,544.000 160.000,384.000 320.000,384.000 " style="stroke: rgb(255, 255, 255); stroke-width: 12px; fill: rgb(255, 255, 255);">
      <title>head-top</title>
    </polygon>
    <polygon points="320.000,1024.000 160.000,1024.000 160.000,864.000 320.000,864.000 " style="stroke: rgb(255, 255, 255); stroke-width: 12px; fill: rgb(255, 255, 255);">
      <title>head-back</title>
    </polygon>
    <polygon points="320.000,864.000 160.000,864.000 160.000,704.000 320.000,704.000 " style="stroke: rgb(255, 255, 255); stroke-width: 12px;">
      <title>head-bottom</title>
    </polygon>
    <polygon points="320.000,704.000 160.000,704.000 160.000,544.000 320.000,544.000 " style="stroke: rgb(255, 255, 255); stroke-width: 12px;">
      <title>head-front</title>
    </polygon>
    <polygon points="480.000,544.000 480.000,704.000 320.000,704.000 320.000,544.000 " style="stroke: rgb(255, 255, 255); stroke-width: 12px;">
      <title>head-right</title>
    </polygon>
    <polygon points="0.000,704.000 0.000,544.000 160.000,544.000 160.000,704.000 " style="stroke: rgb(255, 255, 255); stroke-width: 12px;">
      <title>head-left</title>
    </polygon>
    <polygon points="864 544 704 544 704 384 864 384" style="stroke: rgb(255, 255, 255); stroke-width: 12px;">
      <title>body-top</title>
    </polygon>
    <polygon points="864.000,1024.000 704.000,1024.000 704.000,864.000 864.000,864.000 " style="stroke: rgb(255, 255, 255); stroke-width: 12px;">
      <title>body-back</title>
    </polygon>
    <polygon points="864.000,864.000 704.000,864.000 704.000,704.000 864.000,704.000 " style="stroke: rgb(255, 255, 255); stroke-width: 12px;">
      <title>body-bottom</title>
    </polygon>
    <polygon points="864.000,704.000 704.000,704.000 704.000,544.000 864.000,544.000 " style="stroke: rgb(255, 255, 255); stroke-width: 12px;">
      <title>body-front</title>
    </polygon>
    <polygon points="1024.000,544.000 1024.000,704.000 864.000,704.000 864.000,544.000 " style="stroke: rgb(255, 255, 255); stroke-width: 12px;">
      <title>body-right</title>
    </polygon>
    <polygon points="544.000,704.000 544.000,544.000 704.000,544.000 704.000,704.000 " style="stroke: rgb(255, 255, 255); stroke-width: 12px;">
      <title>body-left</title>
    </polygon>
    <polygon points="665.600,0.000 153.600,0.000 153.600,128.000 665.600,128.000 " style="stroke-width: 12px; fill-opacity: 0.2; fill: none;">
      <title>ui-label</title>
    </polygon>
    <polygon points="102.400,0.000 0.000,0.000 0.000,102.400 102.400,102.400 " style="stroke: rgb(255, 255, 255); stroke-width: 12px;">
      <title>ui-icon</title>
    </polygon>
    <text style="fill: rgb(255, 255, 255); font-family: Arial, sans-serif; font-size: 49px; white-space: pre;" x="224" y="73.0947">Foo bar baz qux</text>
  </g>
  <g>
    <title>head</title>
    <circle style="stroke: rgb(0, 0, 0); fill: rgb(255, 255, 255);" cx="195.303809" cy="619.496219" r="14.10377">
      <title>eye</title>
    </circle>
    <circle style="stroke: rgb(0, 0, 0); fill: rgb(255, 255, 255);" cx="286.696219" cy="619.496219" r="14.10377">
      <title>eye</title>
    </circle>
  </g>
</svg>