<?xml version="1.0" encoding="utf-8"?>
<svg xmlns="http://www.w3.org/2000/svg" viewBox="0 0 144 128">
        <path style="stroke: rgb(0, 0, 0); fill: rgb(255, 255, 255);" d="M 24 16 C 24 7.175 31.175 0 40 0 L 104 0 C 112.825 0 120 7.175 120 16 L 120 112 L 136 112 C 140.425 112 144 115.575 144 120 C 144 124.425 140.425 128 136 128 L 108 128 L 36 128 L 8 128 C 3.575 128 0 124.425 0 120 C 0 115.575 3.575 112 8 112 L 24 112 L 24 16 Z M 96 72 C 102.158 72 106.007 65.3333 102.928 60 C 101.499 57.5248 98.8581 56 96 56 C 89.8416 56 85.9926 62.6667 89.0718 68 C 90.5009 70.4752 93.1419 72 96 72 Z"/>
</svg>