<?xml version="1.0" encoding="utf-8"?>
<svg xmlns="http://www.w3.org/2000/svg" viewBox="0 0 144 128">
        <path style="stroke: rgb(0, 0, 0); fill: rgb(255, 255, 255);" d="M 80.0072 8.01223 C 80.0072 5.53701 78.8821 3.2118 76.9319 1.71167 C 74.9817 0.21152 72.4565 -0.3385 70.0563 0.26153 L 25.0773 11.5125 C 19.7518 12.8377 16.0014 17.6381 16.0014 23.1386 L 16.0014 112.022 L 8.00072 112.022 C 3.57532 112.022 0 115.597 0 120.022 C 0 124.448 3.57532 128.023 8.00072 128.023 L 24.0022 128.023 L 72.0065 128.023 L 80.0072 128.023 L 80.0072 120.022 L 80.0072 8.01223 Z M 64.0058 64.0173 C 64.0058 68.4427 61.3305 72.018 58.0052 72.018 C 54.6799 72.018 52.0047 68.4427 52.0047 64.0173 C 52.0047 59.5919 54.6799 56.0166 58.0052 56.0166 C 61.3305 56.0166 64.0058 59.5919 64.0058 64.0173 Z M 88.0079 32.0144 L 112.01 32.0144 L 112.01 120.022 C 112.01 124.448 115.585 128.023 120.011 128.023 L 136.012 128.023 C 140.438 128.023 144.013 124.448 144.013 120.022 C 144.013 115.597 140.438 112.022 136.012 112.022 L 128.012 112.022 L 128.012 32.0144 C 128.012 23.1886 120.836 16.013 112.01 16.013 L 88.0079 16.013 L 88.0079 32.0144 Z"/>
</svg>