<?xml version="1.0" encoding="utf-8"?>
<svg xmlns="http://www.w3.org/2000/svg" viewBox="0 0 112 128">
        <path style="stroke: rgb(0, 0, 0); fill: rgb(255, 255, 255);" d="M 36 36 L 36 48 L 76 48 L 76 36 C 76 24.95 67.05 16 56 16 C 44.95 16 36 24.95 36 36 Z M 20 48 L 20 36 C 20 16.125 36.125 0 56 0 C 75.875 0 92 16.125 92 36 L 92 48 L 96 48 C 104.825 48 112 55.175 112 64 L 112 112 C 112 120.825 104.825 128 96 128 L 16 128 C 7.175 128 0 120.825 0 112 L 0 64 C 0 55.175 7.175 48 16 48 L 20 48 Z"/>
</svg>