<?xml version="1.0" encoding="utf-8"?>
<svg viewBox="0 0 84 120" style="filter: none;" xmlns="http://www.w3.org/2000/svg" xmlns:bx="https://boxy-svg.com">
        <defs>
                <bx:grid x="0" y="0" width="300" height="300"/>
                <filter id="invert-filter-0" color-interpolation-filters="sRGB" x="-50%" y="-50%" width="200%" height="200%" bx:preset="invert 1 1">
                        <feComponentTransfer>
                                <feFuncR type="table" tableValues="1 0"/>
                                <feFuncG type="table" tableValues="1 0"/>
                                <feFuncB type="table" tableValues="1 0"/>
                        </feComponentTransfer>
                </filter>
        </defs>
        <g style="filter: url('#invert-filter-0');">
                <title>invert</title>
                <path class="cls-1" d="M 83.781177 27.501915 C 83.492625 28.017573 56.53684 1.669119 56.53684 1.669119 C 56.53684 0.386143 57.882956 -0.415714 58.959849 0.225773 C 59.459634 0.523489 59.767518 1.073687 59.767518 1.669119 L 82.382253 25.001967 C 83.625741 25.001967 84.402921 26.390826 83.781177 27.501915 Z M 74.305562 119.999993 L 9.69203 119.999993 C 4.339269 119.999993 0 115.522934 0 110.000201 L 0 10.002279 C 0 4.479546 4.339269 0.002485 9.69203 0.002485 L 58.152178 0.002485 C 58.580886 0.001695 58.992314 0.17677 59.295839 0.489143 L 83.525912 25.488623 C 83.828673 25.801787 83.998356 26.226278 83.997592 26.668599 L 83.997592 110.000201 C 83.997592 115.522934 79.658323 119.999993 74.305562 119.999993 Z" style="fill: rgb(255, 255, 255);">
                        <title>bg</title>
                </path>
                <g transform="matrix(1.999942779541, 0, 0, 1.999958395958, 0.000001612912, 0.002483361633)">
                        <title>lines</title>
                        <path class="cls-1" d="M 41.192304 14.166668 L 29.07692 14.166668 C 28.630844 14.166668 28.269228 13.793572 28.269228 13.333335 L 28.269228 0.833335 C 28.269228 0.191834 28.942305 -0.209103 29.480767 0.111647 C 29.730667 0.260508 29.884613 0.535613 29.884613 0.833335 L 29.884613 12.500002 L 41.192304 12.500002 C 41.814066 12.500002 42.202667 13.194446 41.891786 13.750002 C 41.747506 14.007836 41.480865 14.166668 41.192304 14.166668 Z"/>
                        <path class="cls-1" d="M 37.153843 60.000003 L 4.846153 60.000003 C 2.169696 60.000003 -0.000001 57.761427 -0.000001 55.000003 L -0.000001 5.000002 C -0.000001 2.238578 2.169696 0.000001 4.846153 0.000001 L 29.07692 0.000001 C 29.29128 -0.000394 29.497 0.087145 29.648767 0.243335 L 41.76415 12.743335 C 41.915535 12.89992 42.000379 13.11217 41.999997 13.333335 L 41.999997 55.000003 C 41.999997 57.761427 39.8303 60.000003 37.153843 60.000003 Z M 4.846153 1.666668 C 3.061848 1.666668 1.615384 3.159052 1.615384 5.000002 L 1.615384 55.000003 C 1.615384 56.840952 3.061848 58.333336 4.846153 58.333336 L 37.153843 58.333336 C 38.938148 58.333336 40.384612 56.840952 40.384612 55.000003 L 40.384612 13.678335 L 28.742536 1.666668 L 4.846153 1.666668 Z"/>
                        <path class="cls-1" d="M 33.115382 26.666669 L 8.884614 26.666669 C 8.262852 26.666669 7.874251 25.972224 8.185132 25.416669 C 8.329412 25.158835 8.596053 25.000002 8.884614 25.000002 L 33.115382 25.000002 C 33.737144 25.000002 34.125745 25.694447 33.814864 26.250002 C 33.670583 26.507836 33.403942 26.666669 33.115382 26.666669 Z"/>
                        <path class="cls-1" d="M 33.115382 35.000002 L 8.884614 35.000002 C 8.262852 35.000002 7.874251 34.305558 8.185132 33.750002 C 8.329412 33.492168 8.596053 33.333336 8.884614 33.333336 L 33.115382 33.333336 C 33.737144 33.333336 34.125745 34.02778 33.814864 34.583336 C 33.670583 34.84117 33.403942 35.000002 33.115382 35.000002 Z"/>
                        <path class="cls-1" d="M 33.115382 43.333336 L 8.884614 43.333336 C 8.262852 43.333336 7.874251 42.638892 8.185132 42.083336 C 8.329412 41.825502 8.596053 41.666669 8.884614 41.666669 L 33.115382 41.666669 C 33.737144 41.666669 34.125745 42.361114 33.814864 42.916669 C 33.670583 43.174504 33.403942 43.333336 33.115382 43.333336 Z"/>
                        <path class="cls-1" d="M 20.999998 51.66667 L 8.884614 51.66667 C 8.262852 51.66667 7.874251 50.972225 8.185132 50.41667 C 8.329412 50.158835 8.596053 50.000003 8.884614 50.000003 L 20.999998 50.000003 C 21.62176 50.000003 22.010361 50.694447 21.69948 51.250003 C 21.5552 51.507837 21.288559 51.66667 20.999998 51.66667 Z"/>
                </g>
        </g>
</svg>