<?xml version="1.0" encoding="utf-8"?>
<svg xmlns="http://www.w3.org/2000/svg" viewBox="0 0 144 128">
        <path style="stroke: rgb(0, 0, 0); fill: rgb(255, 255, 255);" d="M 88 36 C 88 24.95 96.95 16 108 16 C 119.05 16 128 24.95 128 36 L 128 48 C 128 52.425 131.575 56 136 56 C 140.425 56 144 52.425 144 48 L 144 36 C 144 16.125 127.875 0 108 0 C 88.125 0 72 16.125 72 36 L 72 48 L 16 48 C 7.175 48 0 55.175 0 64 L 0 112 C 0 120.825 7.175 128 16 128 L 96 128 C 104.825 128 112 120.825 112 112 L 112 64 C 112 55.175 104.825 48 96 48 L 88 48 L 88 36 Z"/>
</svg>